<svg width="14" height="10" viewBox="0 0 14 10" fill="none" xmlns="http://www.w3.org/2000/svg">
<path d="M7.18842 0.288186C6.72642 0.179633 6.26209 0.0766918 5.78217 0.00674255C5.76417 0.0039745 5.744 0.00285231 5.72608 9.45053e-06C5.04425 0.502447 4.41625 1.05695 3.85107 1.65276C4.47683 1.56104 5.11608 1.50283 5.76867 1.47934C8.04735 1.396 10.2141 1.76864 12.1698 2.47861C10.7591 1.50897 9.05676 0.744689 7.18842 0.288186Z" fill="#004B8D"/>
<path d="M6.17249 5.29392C8.75168 4.07927 11.4522 3.56621 14 3.67813C11.8065 2.71133 9.28903 2.20268 6.62774 2.29897C5.31573 2.34707 4.04848 2.53956 2.84848 2.85624C2.24965 3.65853 1.7551 4.52126 1.37939 5.42925C1.95806 5.99723 2.58944 6.53198 3.26903 7.02499C4.15502 6.37091 5.12499 5.7879 6.17249 5.29392Z" fill="#F68B1F"/>
<path d="M2.84843 2.85624C1.85042 3.11921 0.897168 3.46828 0 3.89351C0.908339 5.04831 2.00292 6.10742 3.26792 7.02499H3.26897C2.58939 6.53146 1.95801 5.99723 1.37927 5.42933C1.75497 4.52178 2.24959 3.65905 2.84843 2.85624Z" fill="#FCBB7E"/>
<path d="M3.27014 7.02554C2.59055 6.5332 1.95797 5.99718 1.37931 5.42928C0.842176 6.72622 0.549543 8.1154 0.545044 9.55673C1.33222 8.63408 2.24513 7.78369 3.27014 7.02554Z" fill="#FCBB7E"/>
</svg>
