<svg width="171" height="100" viewBox="0 0 171 100" fill="none" xmlns="http://www.w3.org/2000/svg">
<mask id="mask0_1_27" style="mask-type:luminance" maskUnits="userSpaceOnUse" x="0" y="0" width="171" height="100">
<path d="M0 100H171V-5.1942e-07H0V100Z" fill="white"/>
</mask>
<g mask="url(#mask0_1_27)">
<path d="M116.074 1.77658C113.226 1.10731 110.363 0.472634 107.404 0.0413689C107.293 0.0243028 107.169 0.0173841 107.058 -0.000143279C102.855 3.09759 98.9827 6.51634 95.4982 10.1897C99.3562 9.62422 103.297 9.26537 107.321 9.12054C121.37 8.60671 134.729 10.9042 146.786 15.2814C138.089 9.30319 127.593 4.5911 116.074 1.77658Z" fill="#004B8D"/>
<path d="M109.81 32.639C125.712 25.1502 142.362 21.9869 158.07 22.677C144.546 16.7163 129.025 13.5803 112.617 14.1739C104.528 14.4705 96.715 15.6573 89.3165 17.6097C85.6244 22.5561 82.5754 27.8752 80.259 33.4734C83.8267 36.9751 87.7194 40.2721 91.9093 43.3117C97.3718 39.2791 103.352 35.6846 109.81 32.639Z" fill="#F68B1F"/>
<path d="M89.3167 17.6097C83.1635 19.231 77.2864 21.3832 71.755 24.0049C77.3552 31.1247 84.1038 37.6546 91.903 43.3117H91.9095C87.7196 40.2689 83.8269 36.9751 80.2587 33.4738C82.5751 27.8784 85.6246 22.5594 89.3167 17.6097Z" fill="#FCBB7E"/>
<path d="M91.9166 43.3151C87.7267 40.2796 83.8266 36.9748 80.2589 33.4735C76.9473 41.4696 75.1431 50.0345 75.1154 58.9209C79.9686 53.2323 85.5971 47.9894 91.9166 43.3151Z" fill="#FCBB7E"/>
<path d="M171 91.6524C170.806 91.6566 170.613 91.663 170.413 91.663C162.343 91.663 156.494 86.5095 156.494 79.4105V79.2518C156.494 72.46 162.357 67.1409 169.838 67.1409C170.239 67.1409 170.627 67.1542 171 67.1755V59.0169C170.654 59.0031 170.294 59.0031 169.935 59.0031C155.277 59.0031 144.215 67.7686 144.215 79.4105V79.559C144.215 90.9149 155.429 99.8109 169.748 99.8109C170.184 99.8109 170.585 99.8003 171 99.7897V91.6524Z" fill="#004B8D"/>
<path d="M22.8067 74.5566C14.1569 72.7153 12.9402 71.832 12.9402 69.1037V68.9796C12.9402 66.9681 15.1596 65.3676 19.3735 65.3676C21.5235 65.3676 24.3312 65.9511 26.3019 66.6789V57.9785C24.4695 57.6616 21.6557 57.299 19.5191 57.299C9.29302 57.299 2.00873 62.2833 2.00873 69.8209V69.9349C2.00873 78.1755 8.5044 80.4868 18.5891 82.6219C26.9518 84.4019 27.74 85.5882 27.74 87.9027V88.0203C27.74 90.452 25.0223 91.9322 20.5181 91.9322C14.7999 91.9322 11.0108 89.9765 6.50975 86.8917L0.000213623 93.3565C6.00543 97.8024 12.7262 100 20.3036 100C31.1001 100 38.6779 95.3744 38.6779 87.1306V87.0125C38.6779 79.7756 32.9529 76.7512 22.8067 74.5566Z" fill="#004B8D"/>
<path d="M56.3777 63.2428C45.1499 63.2428 37.3086 71.2454 37.3086 80.956V81.0801C37.3086 91.4932 45.8687 98.6683 57.4562 98.6683C57.7885 98.6683 58.867 98.6241 59.1989 98.6167V90.859C58.9225 90.8696 57.8852 90.9212 57.5953 90.9212C52.7 90.9212 49.2492 88.6413 48.1643 84.2567H74.7761C74.8385 83.3633 74.9143 82.7941 74.9143 81.8388V81.718C74.9143 72.0664 69.2521 63.2428 56.3777 63.2428ZM48.0261 78.2305C48.8896 73.8496 51.8425 70.9866 56.3777 70.9866C60.9758 70.9866 63.8589 73.9086 64.5089 78.2305H48.0261Z" fill="#004B8D"/>
<path d="M109.616 80.0241C109.616 70.8176 103.975 63.6323 92.041 63.6323C80.093 63.6323 74.4511 70.8176 74.4511 80.0241V98.0413H85.5074V79.359C85.7076 75.9504 87.0486 71.9255 92.041 71.9255C97.0186 71.9255 98.471 75.9504 98.6647 79.359V98.0413H109.616V80.0241Z" fill="#004B8D"/>
<path d="M134.312 85.9318C133.36 90.9068 128.214 91.6521 127.047 91.7135C118.724 92.1512 118.428 86.4723 121.226 84.7422C124.988 82.4157 134.345 83.7238 134.345 83.7238C134.345 84.0605 134.434 84.9078 134.312 85.9318ZM127.593 63.4363C127.109 63.4363 125.436 63.4428 124.979 63.4566V71.6908C127.109 71.7111 130.027 72.0695 131.326 72.753C133.236 73.7563 134.227 75.4467 134.274 77.7363C131.669 77.4315 128.717 77.2239 126.157 77.1584C115.714 76.8909 110.55 80.3364 109.513 85.851C109.493 85.9539 109.475 86.0586 109.457 86.1638C109.451 86.1993 109.446 86.2348 109.44 86.2708C109.359 86.7975 109.312 87.3506 109.312 87.9373V88.0618C109.312 94.802 115.286 98.4823 122.546 98.4823C127.877 98.4823 131.548 96.7614 134.203 94.1604V98.0824H144.781V78.0998C144.781 68.8892 139.527 63.4363 127.593 63.4363Z" fill="#004B8D"/>
</g>
</svg>
